<?xml version="1.0" encoding="UTF-8" standalone="no"?>
<!DOCTYPE svg PUBLIC "-//W3C//DTD SVG 1.1//EN" "http://www.w3.org/Graphics/SVG/1.1/DTD/svg11.dtd">
<svg width="100%" height="100%" viewBox="0 0 256 32" version="1.1" xmlns="http://www.w3.org/2000/svg" xmlns:xlink="http://www.w3.org/1999/xlink" xml:space="preserve" style="fill-rule:evenodd;clip-rule:evenodd;stroke-linejoin:round;stroke-miterlimit:1.41421;">
    <g transform="matrix(1,0,0,0.999981,0,0.000599989)">
        <rect x="0" y="-0.001" width="256" height="32" style="fill:white;fill-opacity:0;"/>
    </g>
    <g id="Layer1">
        <ellipse cx="80" cy="16" rx="10.879" ry="10.781" style="fill:white;"/>
        <ellipse cx="48" cy="16" rx="10.879" ry="10.781" style="fill:white;"/>
        <ellipse cx="16" cy="15.999" rx="10.879" ry="10.781" style="fill:white;"/>
        <path d="M19.428,16.005L17.186,16.005L17.186,23.999L13.864,23.999L13.864,16.005L12.283,16.005L12.283,13.181L13.864,13.181L13.864,11.353C13.864,10.044 14.485,7.999 17.216,7.999L19.677,8.009L19.677,10.751L17.891,10.751C17.6,10.751 17.186,10.896 17.186,11.521L17.186,13.181L19.719,13.181L19.428,16.005ZM16,-0.001C7.164,-0.001 0,7.163 0,15.999C0,24.837 7.164,31.999 16,31.999C24.837,31.999 32,24.837 32,15.999C32,7.163 24.837,-0.001 16,-0.001" style="fill:rgb(54,96,159);fill-rule:nonzero;"/>
        <path d="M54.362,12.738C54.369,12.879 54.372,13.019 54.372,13.162C54.372,17.5 51.07,22.502 45.032,22.502C43.177,22.502 41.453,21.959 40,21.027C40.258,21.056 40.518,21.072 40.783,21.072C42.322,21.072 43.736,20.549 44.859,19.668C43.424,19.64 42.211,18.691 41.794,17.388C41.994,17.426 42.199,17.447 42.411,17.447C42.711,17.447 43.001,17.406 43.275,17.332C41.775,17.029 40.642,15.703 40.642,14.113L40.642,14.072C41.086,14.318 41.591,14.465 42.13,14.482C41.249,13.894 40.67,12.888 40.67,11.75C40.67,11.148 40.832,10.584 41.114,10.099C42.732,12.086 45.152,13.392 47.88,13.529C47.824,13.289 47.795,13.039 47.795,12.781C47.795,10.968 49.264,9.5 51.078,9.5C52.021,9.5 52.875,9.898 53.473,10.535C54.22,10.388 54.924,10.115 55.558,9.738C55.312,10.506 54.793,11.148 54.115,11.554C54.779,11.476 55.412,11.299 56,11.039C55.56,11.697 55.004,12.275 54.362,12.738M48,0C39.164,0 32,7.164 32,16C32,24.838 39.164,32 48,32C56.836,32 64,24.838 64,16C64,7.164 56.836,0 48,0" style="fill:rgb(42,169,224);fill-rule:nonzero;"/>
        <path d="M88,23.645L84.57,23.645L84.57,18.125C84.57,16.739 84.074,15.791 82.832,15.791C81.886,15.791 81.32,16.432 81.072,17.047C80.981,17.268 80.959,17.573 80.959,17.883L80.959,23.645L77.53,23.645C77.53,23.645 77.574,14.295 77.53,13.329L80.959,13.329L80.959,14.79C81.416,14.084 82.23,13.086 84.051,13.086C86.307,13.086 88,14.559 88,17.729L88,23.645ZM73.917,11.918L73.895,11.918C72.744,11.918 72,11.125 72,10.135C72,9.124 72.768,8.352 73.939,8.352C75.113,8.352 75.836,9.124 75.857,10.135C75.857,11.125 75.113,11.918 73.917,11.918M75.633,23.645L72.202,23.645L72.202,13.329L75.633,13.329L75.633,23.645ZM80,-0.001C71.163,-0.001 64,7.163 64,15.999C64,24.836 71.163,31.999 80,31.999C88.836,31.999 96,24.836 96,15.999C96,7.163 88.836,-0.001 80,-0.001" style="fill:rgb(6,108,154);fill-rule:nonzero;"/>
        <g transform="matrix(0.397951,0,0,0.397951,-26.6173,-147.471)">
            <path d="M308.122,410.78C308.122,388.575 326.123,370.574 348.328,370.574C370.533,370.574 388.534,388.575 388.534,410.78C388.534,432.986 370.533,450.986 348.328,450.986C326.123,450.986 308.122,432.986 308.122,410.78Z" style="fill:rgb(221,68,52);fill-rule:nonzero;"/>
        </g>
        <g transform="matrix(0.397951,0,0,0.397951,101.383,-147.471)">
            <path d="M308.122,410.78C308.122,388.575 326.123,370.574 348.328,370.574C370.533,370.574 388.534,388.575 388.534,410.78C388.534,432.986 370.533,450.986 348.328,450.986C326.123,450.986 308.122,432.986 308.122,410.78Z" style="fill:rgb(221,68,52);fill-rule:nonzero;"/>
        </g>
        <g transform="matrix(0.397951,0,0,0.397951,-26.6173,-147.471)">
            <path d="M339.04,408.458L339.04,414.031L348.259,414.031C347.887,416.423 345.472,421.043 339.04,421.043C333.49,421.043 328.963,416.446 328.963,410.78C328.963,405.114 333.49,400.517 339.04,400.517C342.198,400.517 344.311,401.864 345.518,403.024L349.93,398.775C347.098,396.128 343.429,394.526 339.04,394.526C330.054,394.526 322.786,401.794 322.786,410.78C322.786,419.766 330.054,427.034 339.04,427.034C348.421,427.034 354.644,420.44 354.644,411.152C354.644,410.083 354.528,409.271 354.389,408.458L339.04,408.458Z" style="fill:white;fill-rule:nonzero;"/>
        </g>
        <g transform="matrix(0.397951,0,0,0.397951,-26.6173,-147.471)">
            <path d="M373.87,408.458L369.226,408.458L369.226,403.814L364.582,403.814L364.582,408.458L359.938,408.458L359.938,413.102L364.582,413.102L364.582,417.746L369.226,417.746L369.226,413.102L373.87,413.102L373.87,408.458Z" style="fill:white;fill-rule:nonzero;"/>
        </g>
        <g transform="matrix(1,0,0,1,128,-0.0006)">
            <ellipse cx="16" cy="15.999" rx="10.879" ry="10.781" style="fill:white;"/>
        </g>
        <g transform="matrix(1,0,0,1,160,-0.0003)">
            <ellipse cx="16" cy="15.999" rx="10.879" ry="10.781" style="fill:white;"/>
        </g>
        <g transform="matrix(1,0,0,1,-96,-0.0006)">
            <path d="M224,15.999C224,7.163 231.164,0 240,0C248.837,0 256,7.163 256,15.999C256,24.836 248.837,31.999 240,31.999C231.164,31.999 224,24.836 224,15.999ZM246.31,9.7L233.69,9.7C232.204,9.7 231,10.905 231,12.392L231,19.609C231,21.095 232.204,22.3 233.69,22.3L246.31,22.3C247.796,22.3 249,21.095 249,19.609L249,12.392C249,10.905 247.796,9.7 246.31,9.7ZM238.2,19.045L238.2,12.267L243.341,15.655L238.2,19.045Z" style="fill:rgb(229,45,40);"/>
        </g>
        <g transform="matrix(1,0,0,1,-132.448,-432.889)">
            <path d="M310.1,452.452C309.108,452.452 308.174,451.917 307.855,451.307C307.855,451.307 307.321,453.425 307.208,453.833C306.81,455.278 305.639,456.723 305.549,456.841C305.486,456.923 305.345,456.897 305.33,456.788C305.305,456.604 305.006,454.782 305.358,453.296C305.535,452.55 306.54,448.288 306.54,448.288C306.54,448.288 306.246,447.702 306.246,446.835C306.246,445.472 307.037,444.456 308.02,444.456C308.856,444.456 309.258,445.083 309.258,445.835C309.258,446.675 308.724,447.932 308.448,449.097C308.217,450.071 308.936,450.866 309.898,450.866C311.639,450.866 312.812,448.63 312.812,445.979C312.812,443.966 311.455,442.458 308.988,442.458C306.201,442.458 304.463,444.538 304.463,446.86C304.463,447.661 304.7,448.225 305.07,448.661C305.24,448.862 305.263,448.944 305.202,449.175C305.157,449.343 305.057,449.751 305.014,449.911C304.954,450.145 304.764,450.227 304.554,450.141C303.27,449.618 302.672,448.212 302.672,446.63C302.672,444.02 304.873,440.889 309.241,440.889C312.749,440.889 315.059,443.429 315.059,446.155C315.059,449.759 313.054,452.452 310.1,452.452M308.448,432.889C299.612,432.889 292.448,440.054 292.448,448.889C292.448,457.727 299.612,464.89 308.448,464.89C317.284,464.89 324.448,457.727 324.448,448.889C324.448,440.054 317.284,432.889 308.448,432.889" style="fill:rgb(202,32,39);fill-rule:nonzero;"/>
        </g>
        <g transform="matrix(0.397955,0,0,0.397951,151.127,-147.47)">
            <path d="M102.708,410.78C102.708,388.575 120.708,370.574 142.913,370.574C165.118,370.574 183.119,388.575 183.119,410.78C183.119,432.986 165.118,450.986 142.913,450.986C120.708,450.986 102.708,432.986 102.708,410.78Z" style="fill:rgb(63,96,166);fill-rule:nonzero;"/>
        </g>
        <g transform="matrix(0.397955,0,0,0.397951,151.127,-147.47)">
            <path d="M159.211,399.577C159.211,400.183 158.803,400.591 158.196,400.591L154.116,400.591C153.509,400.591 153.102,400.183 153.102,399.577L153.102,395.497C153.102,394.891 153.509,394.483 154.116,394.483L158.196,394.483C158.803,394.483 159.211,394.891 159.211,395.497L159.211,399.577ZM127.63,427.077C127.023,427.077 126.615,426.669 126.615,426.063L126.615,408.74L130.895,408.74C130.685,409.356 130.685,410.174 130.685,410.779C130.685,417.507 136.188,423.008 142.913,423.008C149.639,423.008 155.141,417.507 155.141,410.779C155.141,410.174 155.141,409.356 154.933,408.74L159.211,408.74L159.211,426.063C159.211,426.669 158.803,427.077 158.196,427.077L127.63,427.077ZM142.913,402.63C147.401,402.63 151.062,406.291 151.062,410.779C151.062,415.266 147.401,418.928 142.913,418.928C138.426,418.928 134.764,415.266 134.764,410.779C134.764,406.291 138.426,402.63 142.913,402.63ZM159.211,390.403L126.615,390.403C124.367,390.403 122.536,392.233 122.536,394.483L122.536,427.077C122.536,429.325 124.367,431.157 126.615,431.157L159.211,431.157C161.46,431.157 163.29,429.325 163.29,427.077L163.29,394.483C163.29,392.233 161.46,390.403 159.211,390.403Z" style="fill:white;fill-rule:nonzero;"/>
        </g>
    </g>
</svg>
